<svg xmlns="http://www.w3.org/2000/svg" viewBox="0 0 211.3 211.23"><defs><style>.cls-1{fill:#c2410c;}</style></defs><title>donors icon</title><g id="Layer_2" data-name="Layer 2"><g id="Layer_1-2" data-name="Layer 1"><g id="_4egCj8" data-name="4egCj8"><path class="cls-1" d="M186.16,162c3.9,2,7.75,3.48,11.16,5.68,8.73,5.63,12.83,14.16,13.74,24.23a133.71,133.71,0,0,1,.05,14.49c-.07,3.48-1.36,4.7-4.9,4.8-3,.08-6,0-9,0h-63a30.12,30.12,0,0,1-4-.07c-2.29-.31-3.26-1.29-3.29-3.6-.06-6.33-.57-12.73.19-19,1.15-9.41,6.46-16.62,14.42-21.66,3-1.92,6.51-3.11,10.13-4.79-5.77-6.65-9.22-14.34-6.71-23.69a24.34,24.34,0,0,1,9.2-13.82,24.69,24.69,0,0,1,31.95,2.24,23.88,23.88,0,0,1,7.17,18C193.24,151.66,190.35,157.17,186.16,162ZM204,204c0-3.76-.1-7.07,0-10.37a20.11,20.11,0,0,0-2-9.64c-4.18-8.68-10.71-14.4-20.7-14.78-8.31-.32-16.65-.2-25,0-6.88.14-12.5,3.34-16.83,8.48-6.47,7.69-6.72,16.85-5.9,26.34ZM168.94,162c9.48-.32,17.75-7.47,17.55-18s-7.31-16.91-17.47-17.47c-9.41-.52-18,8.27-17.82,17.68C151.37,154.8,159.58,161.8,168.94,162Z"/><path class="cls-1" d="M25.21,162.48c-11.69-14-8-28.41.35-36.2,10-9.27,25.3-8,33.89.43,7.7,7.57,12,22.52-.36,35.6,1.21.36,2.22.59,3.19.95,11.21,4.19,18.59,11.91,21.55,23.6a23.41,23.41,0,0,1,.39,5.45c0,4.83.06,9.66,0,14.49,0,3.26-.9,4.12-4.07,4.38-.83.07-1.67,0-2.5,0h-71c-.83,0-1.67.06-2.5,0C1.85,211,.06,209.71.11,207.62c.15-6.46-.64-12.91.59-19.39C3.18,175.13,11,167.07,23.39,163ZM77.39,204a11.29,11.29,0,0,0,.39-2.37c-.2-4-.3-8-.78-11.9-1.51-12.36-12.86-20.63-22.7-20.61-8,0-16,.05-24,0-10.39-.09-19,8.61-21.64,15.78-2.33,6.3-1.3,12.65-1.49,19.13ZM60,144.41c.1-9.38-8.18-18.17-17.71-17.81-9.76.36-17.3,6.64-17.61,17.33-.3,10.35,7.69,17.8,17.41,18C50.29,162.17,59.46,156.1,60,144.41Z"/><path class="cls-1" d="M122.42,42.76c6.47,2,12.09,4.7,16.55,9.51,4.67,5,7.77,10.77,8.25,17.66.39,5.47.57,11,.61,16.43,0,3.94-1.07,4.91-5.12,4.92q-37.24,0-74.48,0c-3.79,0-5-1-4.92-4.61,0-5.81-.06-11.67.71-17.41,1.68-12.53,9.21-20.58,20.71-25.2,1.22-.49,2.5-.85,3.79-1.28-12.6-14.49-7.56-29,.43-36,10.42-9.25,23.68-8.87,33.76.45C131.21,15.06,134.11,30.39,122.42,42.76ZM70.52,84.49a19.43,19.43,0,0,0,2.61.38q32.43,0,64.87,0a13.82,13.82,0,0,0,2.93-.69c0-3.87.28-7.55-.05-11.16-1.23-13.28-10.29-22.79-23.81-23.66a202,202,0,0,0-22.94,0A24,24,0,0,0,74.82,60C69.6,67.46,69.8,75.79,70.52,84.49ZM123,24.68c.7-8.84-8.17-17.76-17.77-17.58-9,.17-17.37,8.65-17.27,17.72.09,8.73,7.76,17.65,17.91,17.51C115.25,42.2,123.64,33.68,123,24.68Z"/><path class="cls-1" d="M39.77,56.2l-5.12-4.72,4.67-5.29L44.42,51Z"/><path class="cls-1" d="M162.09,46.57l4.41-5.47,5.05,4.83-5.11,4.73Z"/><path class="cls-1" d="M87.55,198.86l1.7-7.09,5.72,1.4v6.5Z"/><path class="cls-1" d="M22.75,92.38l-6.7-1.48L17.82,84l6.36,1.9Z"/><path class="cls-1" d="M186.54,85.17l-1.73-5.58L191,77.06l2.36,6.2A9,9,0,0,1,186.54,85.17Z"/><path class="cls-1" d="M20.11,76.88l2.33-5.73c2.77-.6,4.45,1.17,6.6,2.13l-2.44,6Z"/><path class="cls-1" d="M30,57.62l5.77,3.93-3.51,5.6L26.4,63.73Z"/><path class="cls-1" d="M156.7,42,152,38.59c-.18-2.58,1.9-3.78,3-6.18l6,4Z"/><path class="cls-1" d="M142.34,25.29l6.12,3.23-3,6.14-6-3Z"/><path class="cls-1" d="M189.44,99.18l-.91-6.67,6.39-1.39,1.41,6.74Z"/><path class="cls-1" d="M176.7,51.83l4.22,5.77-5.5,3.74-4.11-5.15Z"/><path class="cls-1" d="M50.34,36.74l3.81,5.12L49.5,46.22,44.93,41.4C45.9,39.14,48,38.22,50.34,36.74Z"/><path class="cls-1" d="M65.53,34.56l-5.36,3.49-4.06-5.67,6.24-3.73Z"/><path class="cls-1" d="M115.63,193.24l5.91-1.32c2.08,2,1.57,4.23,1.74,6.83l-6.25,1Z"/><path class="cls-1" d="M179,67.29l6-3.38,3.29,6.2-6.14,3.1Z"/><path class="cls-1" d="M190.24,106.12h6.3c1,2.1.62,4.28.26,6.7l-6.56-.75Z"/><path class="cls-1" d="M14.12,105.09l1.05-6.77,6.36,1L21,105.55Z"/><path class="cls-1" d="M15.28,120.25l-1.18-6.5c2.18-1.53,4.43-.42,6.76-.93l.79,6Z"/><path class="cls-1" d="M102.23,200.25v-6.08l6.67-.59v6.15C107,200.8,104.86,200.11,102.23,200.25Z"/></g></g></g></svg>