<svg xmlns="http://www.w3.org/2000/svg" viewBox="0 0 216.18 206.94"><defs><style>.cls-1{fill:#c2410c;}</style></defs><title>lives impacted icon</title><g id="Layer_2" data-name="Layer 2"><g id="Layer_1-2" data-name="Layer 1"><g id="EZc1NZ"><path class="cls-1" d="M69.56,180.19,22.29,132.87c-3.83,3.8-7.81,7.77-11.8,11.72a27.74,27.74,0,0,1-3.28,3.06,4.45,4.45,0,0,1-5.89-.51,4.51,4.51,0,0,1-.43-5.9,12.64,12.64,0,0,1,1.65-1.86C7.72,134.19,12.87,129,18.1,123.83c3.6-3.54,5.48-3.49,9.19.21q18.23,18.17,36.39,36.42a43.92,43.92,0,0,1,3.26,4.21c2-1.85,3.4-3,4.56-4.32,2.13-2.47,4.71-3.32,7.94-3.31,17.66.09,35.32,0,53,0a22.94,22.94,0,0,0,4-.07,8.12,8.12,0,0,0,3.61-1.36c9.68-7.85,19.28-15.81,28.92-23.71,4.62-3.79,9.3-7.52,13.92-11.32a14.5,14.5,0,0,0,3.21-3.11c6.47-10.22,12.83-20.51,19.42-31.09a13.52,13.52,0,0,0-13.93,3.19A82.9,82.9,0,0,0,185.18,96c-4.57,5.21-10.17,9-16.18,12.28-2.89,1.58-5.64,3.42-8.52,5.18.44,1.52.83,2.77,1.16,4,2.68,10.33-5.66,19.78-13.75,21.49a37.3,37.3,0,0,1-7.4.76c-11.33.08-22.66,0-34,0-1.33,0-2.66,0-4,.12a2.83,2.83,0,0,0-3,2.75A11.13,11.13,0,0,1,99,145c-1,2.72-2.9,3.94-5.22,3.39-2.68-.63-4-2.67-3.64-5.57,1-7.34,6.8-12.44,14.9-12.71,5.49-.19,11,0,16.49,0h20c.67,0,1.33,0,2,0,7.44-.2,10.78-4.56,9-11.82a6.42,6.42,0,0,0-5.84-5.28,50.06,50.06,0,0,0-5.49-.22c-10.83,0-21.66-.12-32.49.05a27,27,0,0,1-11.16-2,38,38,0,0,0-17-2.82c-4.16.19-8.33,0-12.49,0-8,0-14.93,2.61-20.47,8.55a36.8,36.8,0,0,1-3.93,3.84,4.46,4.46,0,0,1-6.28-.25,4.51,4.51,0,0,1-.12-6.29c5.88-6.81,12.87-12.05,21.86-13.91,4.18-.86,8.5-1,13.25-1.59a75.14,75.14,0,0,0,.11-10.06c-.37-9.82,3.8-16.89,12.39-21.56C89.92,63.94,94.92,61,99.92,58c3.61-2.14,4.57-4.39,3.63-8.28a4.47,4.47,0,0,0-1.32-2A23.93,23.93,0,0,1,94.61,28c.25-3.8.14-7.71,1.07-11.35A22.88,22.88,0,0,1,116.5,0c6.86-.27,12.52,2.79,17.1,7.83a22.74,22.74,0,0,1,6,16.43,89.18,89.18,0,0,1-.32,10,23.07,23.07,0,0,1-8.33,14.43c-1.52,5.44.69,8.39,5.27,10.56,4.79,2.27,9.3,5.13,13.89,7.82,9.37,5.5,12.47,13.24,11.6,23.52-.21,2.44-1.43,3.42-4,3.47s-3.88-.85-4.2-3.21c-.15-1.15,0-2.33-.08-3.49-.25-5.14-2.28-9.34-6.79-12-4.71-2.81-9.42-5.63-14.29-8.14-5.75-3-10.29-6.75-10.83-13.52H112.9a21.72,21.72,0,0,0-.93,2.7c-.9,4.23-3.56,7-7.22,9-4.93,2.76-9.69,5.85-14.73,8.38C83.45,77,80.54,82.21,80.74,89.4c.08,3,0,5.93,0,8.7.63.35.92.65,1.19.63,6.59-.53,12.78,1.09,18.93,3.25a21.51,21.51,0,0,0,6.8,1.07c10.5.11,21,.07,31.49,0,5.21,0,10.29.44,14.77,3.4,5.23-3.1,10.41-6.07,15.46-9.24a43.78,43.78,0,0,0,5.84-4.61c4.21-3.77,8.12-7.91,12.54-11.4,5.1-4,11-6,17.64-4.48a17.8,17.8,0,0,1,8.9,5.15c2.2,2.23,2.43,3.4.86,6.21-2.1,3.76-4.41,7.41-6.69,11.06-4.92,7.88-9.65,15.88-14.93,23.51-2.11,3-5.34,5.37-8.25,7.79-8.68,7.23-17.46,14.35-26.21,21.5-5.28,4.31-10.61,8.55-15.85,12.91-2.11,1.76-4.5,1.87-7,1.86-17.66,0-35.32.08-53-.09-3.65,0-6.53.65-8.59,4.2.86,2,2.93,3.24,4.43,4.93,2.81,3.15,2.94,5.18,0,8.14C72.1,191.07,64.94,198,58,205.2c-2,2-5.17,2.42-7.11.5a4.84,4.84,0,0,1,.44-7.09,28.74,28.74,0,0,0,2.13-2.11q6.71-6.72,13.43-13.44C67.77,182.13,68.65,181.15,69.56,180.19Zm34-153.2h0c0,1.82-.06,3.65,0,5.47.29,7.36,5.69,12.4,13.27,12.44,7.94,0,13.43-5,13.65-12.58q.16-5.47,0-10.95a13.06,13.06,0,0,0-.88-4.31c-2.12-5.33-6.21-7.7-11.88-8.16-8.71-.7-14.85,6.65-14.2,13.61C103.7,24,103.59,25.5,103.59,27Z"/></g></g></g></svg>