<svg xmlns="http://www.w3.org/2000/svg" viewBox="0 0 168.92 217.37"><defs><style>.cls-1{fill:#c2410c;}</style></defs><title>money raised icon</title><g id="Layer_2" data-name="Layer 2"><g id="Layer_1-2" data-name="Layer 1"><g id="vMtZpf"><path class="cls-1" d="M86.8,21.52,105.32,3.24A19.8,19.8,0,0,1,107.84.83a3.37,3.37,0,0,1,4.56.27,20.58,20.58,0,0,1,2.47,3.12c9.42,13.68,18.87,27.34,28.17,41.1,1.86,2.75,3.84,4.14,7.31,3.89,4.64-.32,9.32-.15,14-.05,3.39.07,4.85,1.72,4.56,5.05-3.27,37.5-6.54,75.05-8.85,112.62-.05.83,0,1.67-.07,2.5-.21,3.84-1.46,6.61-5.25,8.74-22.28,12.53-44.39,25.36-66.52,38.16a6.7,6.7,0,0,1-7.45,0c-22.27-12.89-44.54-25.78-66.92-38.46A8.56,8.56,0,0,1,9,170.33C6.13,132,3.79,93.5.12,55.21c0-.5-.11-1-.12-1.49-.06-3.25,1.07-4.5,4.44-4.56,5-.08,10-.23,15,0a8.37,8.37,0,0,0,7.64-3.51c7.55-9.28,15.31-18.4,23-27.59,4-4.85,8-9.77,12.13-14.57s5.51-4.71,9.42-.15c4.23,4.92,8.28,10,12.42,15C84.85,19.36,85.74,20.33,86.8,21.52ZM7.12,56.47c4.12,34.51,5.38,69.27,8.06,103.9.28,3.61.86,7.2,1.31,10.86l68,39,68.25-39.22c.11-2.53.13-4.85.33-7.16.77-8.87,7.37-107.42,8.28-107.42Zm26.42-7.62h66.9L67,8.78Zm103.86.27L109.82,9.19c-3.33,3.22-6.35,6.06-9.28,9s-5.91,6.09-9,9.24c5.8,6.89,11.25,13.34,16.68,19.82a4.62,4.62,0,0,0,3.81,1.92C120.18,49.1,128.3,49.13,137.41,49.13Z"/><g id="r4MotF"><path class="cls-1" d="M91.44,105.58a14,14,0,0,1,2.44,5.55l.5,0h5.74a5.66,5.66,0,0,1,.81.07,1.1,1.1,0,0,1,.94,1s0,.06,0,.09c0,1.41,0,2.82,0,4.23a1.22,1.22,0,0,1-1.09,1.14H94c-.06.25-.12.48-.16.71a14.43,14.43,0,0,1-4.55,8.18,17.33,17.33,0,0,1-4,2.67,19.26,19.26,0,0,1-3.75,1.35,28.66,28.66,0,0,1-3.33.64l-.15,0a2.3,2.3,0,0,0,.14.19c1.07,1.18,2.16,2.34,3.22,3.53.77.86,1.51,1.74,2.27,2.6s1.32,1.5,2,2.26,1.26,1.48,1.88,2.22l2.08,2.47,2,2.41,2.89,3.51L96,152.28c.06.07.11.15.16.22a1.24,1.24,0,0,1-.61,1.92,1.35,1.35,0,0,1-.44.07H87.49a1.19,1.19,0,0,1-1-.43l-1.33-1.56L83,149.93l-2.17-2.57-1.39-1.63L76.29,142c-.67-.78-1.36-1.55-2-2.32-1.1-1.25-2.2-2.5-3.31-3.75-.54-.6-1.09-1.18-1.64-1.77L67,131.65a1.58,1.58,0,0,1-.48-1.13c0-1.61,0-3.22,0-4.83a1.25,1.25,0,0,1,.63-1.18,1.65,1.65,0,0,1,.87-.18c1.64,0,3.28,0,4.92,0a21.82,21.82,0,0,0,3.34-.32,15.69,15.69,0,0,0,2.89-.75,9.78,9.78,0,0,0,3.16-1.84,7.38,7.38,0,0,0,2.23-3.57.54.54,0,0,0,0-.14H67.66a1.15,1.15,0,0,1-1.14-1.17c0-1.38,0-2.76,0-4.14a1.15,1.15,0,0,1,1.08-1.18c.23,0,.45-.05.68-.05H84a6.14,6.14,0,0,0-1.15-1.62,8.48,8.48,0,0,0-3.76-2.11,13.85,13.85,0,0,0-2.3-.49,23.55,23.55,0,0,0-2.67-.18L68,106.7a1.48,1.48,0,0,1-1-.3,1.15,1.15,0,0,1-.44-.81c0-.12,0-.24,0-.36q0-2.41,0-4.83a2.13,2.13,0,0,1,.06-.63,1.18,1.18,0,0,1,1.08-.83,3.43,3.43,0,0,1,.41,0h32.19a2.44,2.44,0,0,1,.76.1,1,1,0,0,1,.77.91c0,.27.06.54.07.81q0,1.46,0,2.91a5.75,5.75,0,0,1-.07.86,1.06,1.06,0,0,1-.81.88,2.59,2.59,0,0,1-.72.08H91.51Z"/></g><path class="cls-1" d="M102.88,186.34l-6.73,4.05-3.3-5.79c1.67-2,4-2.76,6.54-4Z"/><path class="cls-1" d="M72.87,190.39l-6.78-4,3.42-5.88,6.75,3.61Z"/><path class="cls-1" d="M106.15,176.53l6.74-3.83,3.44,6-6.64,3.94Z"/><path class="cls-1" d="M52.59,178.69l3.39-6,6.79,3.79-3.51,6.12Z"/><path class="cls-1" d="M129.86,170.81l-6.15,3.6c-2.08-1.33-2.62-3.61-4.05-5.76l6.81-3.83Z"/><path class="cls-1" d="M45.65,174.67l-6.6-3.87,3.4-6,6.83,3.84Z"/><path class="cls-1" d="M34.51,67.34h5.74c1.13,2.08.55,4.18.49,6.61H34.11C33.95,71.71,33.4,69.51,34.51,67.34Z"/><path class="cls-1" d="M135.19,74.1h-6.85V67.49h6.17C135.57,69.41,134.72,71.55,135.19,74.1Z"/><path class="cls-1" d="M61,67.46h6.18c1.06,2.18.63,4.32.06,6.64h-5.8C60.43,72,60.94,69.86,61,67.46Z"/><path class="cls-1" d="M101.06,67.46h6.69V74h-6.34Z"/><path class="cls-1" d="M121.79,67.52,121.5,74h-6.38V67.79C117,66.77,119.1,67.25,121.79,67.52Z"/><path class="cls-1" d="M135.46,158.17l6.22,1.08c-.42,4.94-.42,4.94-4.42,7.25a7.82,7.82,0,0,1-3.21-5.12C133.85,160.57,134.87,159.43,135.46,158.17Z"/><path class="cls-1" d="M33.16,158.16c.44.65.71,1,1,1.43s.67,1.09,1.08,1.76l-2.92,5.16c-4.06-.75-5-3.4-5.28-7.16Z"/><path class="cls-1" d="M89,194c-3.08,2.95-5.82,3.11-8.91.07.73-1.41,1.42-3,2.36-4.47a2.24,2.24,0,0,1,4-.1C87.36,190.85,88.07,192.36,89,194Z"/><path class="cls-1" d="M20.63,74.45c-.87-6.29.11-7.29,6.16-6.79v6.46Z"/><path class="cls-1" d="M139.11,106.23l7.08,1L145,113.37l-5.91-.31Z"/><path class="cls-1" d="M24.39,120.15l5.91-1c1.26,2.19.81,4.27.63,6.74l-5.52.59A7.83,7.83,0,0,1,24.39,120.15Z"/><path class="cls-1" d="M143.72,126.5l-5.69-.59v-6.69l6.37.84C145.35,122.35,144.55,124.15,143.72,126.5Z"/><path class="cls-1" d="M32.29,139l-6.25.34-1.18-5.28c2.12-1.89,4.38-1.58,7-1.67Z"/><path class="cls-1" d="M137.51,132.39c1.34.07,2.5.05,3.63.22a19.73,19.73,0,0,1,2.85,1l-.95,5.51h-5.86A9.56,9.56,0,0,1,137.51,132.39Z"/><path class="cls-1" d="M147.93,74.18h-5.82v-6.3C148.3,67.15,149.7,68.69,147.93,74.18Z"/><path class="cls-1" d="M22.79,107.56l6.87-1.15.94,6.67-6.62.31Z"/><path class="cls-1" d="M27.17,152.46l-1.29-6,6.9-1.28.75,6.67Z"/><path class="cls-1" d="M142.48,146.32c.18.69.38,1,.33,1.28-.27,1.43-.61,2.84-1,4.78l-6.29-.43.56-6.7Z"/><path class="cls-1" d="M23.06,100.34l-1.32-5.62,6.53-1.35c1.41,2,.77,4.11.79,6.19C27.17,100.78,25.23,100.33,23.06,100.34Z"/><path class="cls-1" d="M145.7,100.47,140,100.1V93.52l6.46.83C147.51,96.38,146.41,98.13,145.7,100.47Z"/><path class="cls-1" d="M147.16,87.15h-6.07V80.6l6.91.87Z"/><path class="cls-1" d="M20.79,81.53l7.08-1,.34,6.52H21.87Z"/><path class="cls-1" d="M94,67.39V74H88.2V67.61c.8-.11,1.72-.31,2.64-.35S92.74,67.33,94,67.39Z"/><path class="cls-1" d="M80.78,74.17H75.37c-1.19-2-.35-4.17-.7-6.16,2.05-1.23,4-.66,6.12-.66Z"/><path class="cls-1" d="M53.92,67.49v6.27c-1.9.89-3.76.48-5.87.37V67.49Z"/></g></g></g></svg>