<svg xmlns="http://www.w3.org/2000/svg" viewBox="0 0 142.37 151.98"><defs><style>.cls-1{fill:#c2410c;}</style></defs><title>trusted icon</title><g id="Layer_2" data-name="Layer 2"><g id="Layer_1-2" data-name="Layer 1"><g id="jxHuM5"><path class="cls-1" d="M117.95,75.9q0-14.49.08-29c0-1.6.35-3.42-1.91-3.91-1.33.91-1.49,2-1.44,3.46.21,6.28.16,12.57.32,18.85a10.69,10.69,0,0,0,.93,3.76,2.43,2.43,0,0,1-1.11,3.49c-4.82-2.12-9.87-1.75-15.25-1.11-.89,5.62-2.21,10.94-8.12,13-.54,8.5-.54,8.5,7.81,12.21,0,1.69,0,3.65,0,5.61,0,4.83.07,9.67-.14,14.5-.1,2.11.15,4.83-3.21,5.3a6.22,6.22,0,0,1-1.19-4.66c.26-5.32.2-10.65.33-16,0-1.73-.7-2.45-2.62-2.29-1.55,5.65.41,12.51,1,18.21A295,295,0,0,1,95.19,148c0,.66.21,1.51-.11,2a4.09,4.09,0,0,1-2.16,1.64c-.46.1-1.45-.84-1.68-1.5a8.88,8.88,0,0,1-.18-3c.11-13.76-2.14-27.45-3-41.16-.4-6.29-.64-12.59-1.08-18.88A9.16,9.16,0,0,0,85.8,84c-.78-1.61,0-2.46,1.34-3.07.15-.06.34,0,.49-.08,5.93-2,7.25-3.8,7.2-10.09,0-5.81-.24-11.62-.31-17.44-.1-7.9-.13-15.8-.21-23.7a18,18,0,0,0-.25-4,2.3,2.3,0,0,0-1.63-1.47,3.32,3.32,0,0,0-2.37,1.16,5.14,5.14,0,0,0-.7,2.83c-.05,5.8-.1,11.61.06,17.41,0,1.56.84,3.1,1.42,5.09-.71,1.91-2.44,1.79-4.27,1A24.38,24.38,0,0,0,76.82,50c-3.68,0-7.29.08-11.15,2.42l-1.55-1.55c.11-1.12.06-1.36.15-1.42C68,46.69,66.5,42.5,67.16,38.9L67,39c3.74.22,3.83.29,4.1,3.36,0,.5,0,1,0,1.5s.11,1,.16,1.39c.34.21.6.52.87.53,1.12.06,2.24,0,3.83,0,0-2.32,0-4.28,0-6.24q0-13,0-26c0-2,.18-4.09-2.18-5.11-2.44,1.19-2.44,1.19-3.38,5.31l-2.59.32C66.72,12.78,66.54,9,67.6,7.35A6.86,6.86,0,0,1,73.88,4c3.06.13,5.51,2.86,6.82,7.46,7.15.63,7.91,1.31,8.89,7.94.24.12.5.36.76.37C97,20,98.92,22,99,28.44c0,3.31,0,6.63,0,10h3.37c1-3.08,2.43-6.08,6.21-6a6,6,0,0,1,6.16,5.27c2.36,1,4.54,1.46,6,2.72,1.7,1.44,1.52,3.86,1.5,6.05-.06,7.66,0,15.33,0,23a12.15,12.15,0,0,0,.05,3,4.13,4.13,0,0,0,1.47,2.29c.35.23,1.58-.36,2-.9,1.41-1.62,2.56-3.47,4-5.11,2.8-3.27,6.27-4.19,9.74-2.72,2.79,1.18,3.59,2.88,2.13,5.54C138.22,77.78,134.76,84,131,90.08c-2.89,4.65-7.35,7.54-13,9.36.29,3.86.56,7.62.87,11.39.41,5,1,9.9,1.28,14.87.5,7.79.78,15.59,1.31,23.38.11,1.57,0,2.69-1.69,2.88s-2.41-.83-2.63-2.34a6,6,0,0,1,0-1c.18-8.83-.88-17.55-1.91-26.3-.83-7.08-1-14.24-1.46-21.86-.66-1-3.74-1.27-2.15-4.27a40.2,40.2,0,0,1,4.15-1c5.72-.8,9.64-4.18,12.51-8.87s5.45-9.48,8.12-14.25a13.37,13.37,0,0,0,.77-2.26c-2.72-.43-3.75,1.42-5,2.85-1,1.12-1.67,2.47-2.67,3.56-3.82,4.2-5.38,4.34-10.14,1.13ZM84.89,16.57c-4.12-.59-4.57-.43-4.6,2.41-.09,8.8,0,17.6,0,26.57l4.63.88Zm18.06,50.11c0-7.13,0-13.92,0-20.7a2.54,2.54,0,0,0-.21-1.44c-.47-.58-1.19-1.38-1.76-1.35s-1.2.9-1.62,1.52a2.76,2.76,0,0,0-.22,1.45c0,6.77,0,13.55,0,20.52Zm7-29.52c-3-.35-2.74,1.39-2.74,2.83q0,11.68,0,23.35a5,5,0,0,0,.2,2.42c.38.59,1.38.78,2.54,1.36Z"/><path class="cls-1" d="M49.7,110.1c-6.17-.49-12.37-2.81-18.36,0-1.53-1-2.3-2-1.31-3.76a7.07,7.07,0,0,0,.92-3.2q.14-8.49,0-17a4.24,4.24,0,0,0-1.7-3.08,10.64,10.64,0,0,0-1,3c-.08,8.66,0,17.31,0,25.82,2.41,1,4.82,1.66,6.82,2.95a9,9,0,0,1,4.2,8.45c-.06,1.25-.6,2.42-2,2.42a2.17,2.17,0,0,1-2.22-2.23c-.26-3.85-2.33-5.66-6.06-6.74-1.84-.53-3.32-1.23-5.3-.74a4.49,4.49,0,0,1-4.9-1.67c-1-1.32-2.09-2.56-3.1-3.86s-2.09-2.89-4.71-3c4.07,6.75,6.49,14.06,12.42,19.24,2.2,1.92,4.47,3.45,7.53,3.25a4,4,0,0,1,2.93,1c1.24,1.09.82,1.46-.06,2.52a7.73,7.73,0,0,0-1.64,4.06c-.26,2-.11,4-.29,6-.2,2.16-.51,4.3-.84,6.44a2.7,2.7,0,0,1-1.92,1.8,2.67,2.67,0,0,1-2-1.76,45.62,45.62,0,0,1,.18-7c.22-2.78.59-5.56.88-8.14-2.72-1.72-5.19-3-7.39-4.73a27.23,27.23,0,0,1-7.65-9.69c-2-4-4.27-7.87-6.29-11.86-1.32-2.6-.95-3.33,1.45-4.77a6.28,6.28,0,0,1,7.45.45A16,16,0,0,1,19.1,108a11,11,0,0,0,4.7,4.24c.1-1.91.24-3.33.24-4.76q0-10,0-20c0-4.27.51-8.11,5.95-8.72.57-.06,1-1.1,1.53-1.72,4-5.1,7.82-4.66,11,1.52,3.4.28,6.11,1.82,6.86,6a12.81,12.81,0,0,1,2.72.49,6.09,6.09,0,0,1,4.08,6.18q0,17.24,0,34.47c0,4.19-2.4,6.68-6.2,8.75.34,2.9.74,5.82,1,8.75a40.77,40.77,0,0,1,.19,6.48c-.06.78-1.05,1.49-1.62,2.23a23.31,23.31,0,0,1-2.41-2.08c-.44-.49-.26-2.62-.29-3.26-.07-1.45-.15-2.91-.26-4.36a60.66,60.66,0,0,0-1.19-8.63c-.82-3.66,3.63-3.23,5.54-5.31,1.16-1.27,1-3.22,1-4.82,0-8.49,0-17,0-25.48,0-2,.09-4,0-6a16.68,16.68,0,0,0-1-3.29c-2.93,3.47-1.45,7-1.64,10.17C49.09,102.27,49.51,105.72,49.7,110.1ZM37.81,78.44c-2.21-.88-2.51.26-2.51,1.81,0,7.32,0,14.63,0,21.95a8.64,8.64,0,0,0,1,2.63c.71-.58,1.4-.88,1.4-1.18C37.82,95.23,37.81,86.81,37.81,78.44Zm5.73,4.37c-.53.78-1.18,1.29-1.18,1.8-.08,6.15-.12,12.29,0,18.44,0,.65,1.07,1.29,1.83,2.15.72-2.88,1.21-18.23.66-20.67C44.73,84,44.13,83.57,43.54,82.82Z"/><path class="cls-1" d="M67.16,38.9,55.69,47.38c-2.55-1.65-5.22-3-7.41-4.88a69.12,69.12,0,0,1-8.75-8.81c-3.32-4.13-3.8-9-1.74-13.91,1.43-3.43,6.31-6.25,10.24-5.7,2.5.35,4.9,1.41,7.74,2.27,3.42-2.16,7.46-3.45,12-1.15A11.41,11.41,0,0,1,72.41,32c-1.6,2.47-3.57,4.71-5.37,7Z"/><path class="cls-1" d="M54.47,12.3C47.7,8,41.81,10.36,37.4,14.85c-5.71,5.82-6.16,13-1.18,20.12-1.91,1.42-3.47,1.52-5.19.33A80.82,80.82,0,0,1,15.82,21.83C11.89,17.27,11.56,10,15.75,4.32,18.39.75,25.42-1.09,29.25.68c1.51.7,3,1.44,4.75,2.29,4.38-3.36,9.22-4.09,14.16-1.07A12.29,12.29,0,0,1,54.47,12.3Z"/><path class="cls-1" d="M62,150.65c-3.35.15-3.73,0-3.81-2.25a79.61,79.61,0,0,1,.15-9c.69-9,1.78-18.06,2.59-27.07.83-9.2,1-18.28,1-27.5C59.28,83.4,56.46,82,53.83,80.4c-5.26-3.29-8.27-8.53-11.24-13.72-2.8-4.89-5.5-9.84-8.17-14.81C32.06,47.45,34,44,39.14,44a9.59,9.59,0,0,1,8.26,3.83c1.28,1.74,2.46,3.55,3.77,5.26a11.24,11.24,0,0,0,2.43,2.47A2.13,2.13,0,0,0,57,54c.22-1.47-.06-3,.34-4.44A2.83,2.83,0,0,1,59.47,48c.73,0,2.14,1,2.12,1.51-.11,2.84.72,5.9-1.64,8.36-2.52,2.63-6.05,3.34-8.91,1a31.68,31.68,0,0,1-5.55-6.29c-1.4-2-2.88-3.65-5.21-4.36a7.46,7.46,0,0,0-2.2.12,12.64,12.64,0,0,0,.73,2.53C42.21,56.92,45.62,63,49.13,69A23.08,23.08,0,0,0,66.61,80.76c.49.07,1.06-.1,1.48.08.69.3,1.81.78,1.83,1.23a3.73,3.73,0,0,1-1,2.49c-.49.52-1.47.59-2.14.82-.54,9.2-.87,18.35-1.8,27.52q-1.42,14-2.1,28.14C62.88,141.76,62.64,150.65,62,150.65Z"/><path class="cls-1" d="M13,71.93C7.86,70.46,5.16,66.5,1.94,63.2a6.27,6.27,0,0,1-1-1.7c-2.77-5.81,1-11.41,7.52-10.54a25.1,25.1,0,0,0,8.12-.24c5.28-1,9.8,4.48,8.08,9.32-1.78,5-5.85,7.88-9.77,10.92A12.44,12.44,0,0,1,13,71.93Z"/><path class="cls-1" d="M109.84,22.94c-2.42-2.07-4.77-3.87-6.88-5.93a6.1,6.1,0,0,1-1.54-6.43c.89-2.89,3.33-4.33,6.66-3.47a7.54,7.54,0,0,0,4.17,0c2.33-.62,4.78-.43,6.17,1.92a6.2,6.2,0,0,1-.34,7A19.25,19.25,0,0,1,109.84,22.94Z"/><path class="cls-1" d="M130.45,142c.06,2.67,0,5.33-.17,8-.05.74-1,2-1.59,2a2.92,2.92,0,0,1-2.15-1.56,10.21,10.21,0,0,1-.38-3.4c-.28-5-.56-10.17-.84-15.23s-1.09-10-1.18-14.95a3.18,3.18,0,0,1,1.75-2.51c1.53-.28,2.17,1,2.32,2.51C129,125.05,130.25,133.54,130.45,142Z"/><path class="cls-1" d="M76.24,69.49c-.12,1.3.46,3.24-1.64,3.48-1.86.21-2.35-1.31-2.59-2.95-.73-5-3.5-8.06-8.52-9-1.31-.23-2.33-.92-2.22-2.2.14-1.57,1.47-2.1,2.94-1.93C70.7,57.66,76.39,63.8,76.24,69.49Z"/><path class="cls-1" d="M117.95,75.9l1.39,1.46a2.74,2.74,0,0,1-2.41,2.71c-4.1.74-6.26,3.3-6.76,7.38a2.72,2.72,0,0,1-.38,1.39c-.4.47-1.09,1.1-1.54,1-.7-.12-1.81-.74-1.86-1.23a11.6,11.6,0,0,1,.26-4.8C108.49,78.58,112.35,75.93,117.95,75.9Z"/><path class="cls-1" d="M75.28,126.61c.4-.6,1.1-.88,2.3-.48A2.36,2.36,0,0,1,79,127.86c.38,1.33.3,3.41-.73,4.49-1.91,2-3.36-.54-3.48-2.38A6,6,0,0,1,75.28,126.61Z"/><path class="cls-1" d="M76.77,106.93c-2.18,0-2.37-4.74-1.72-6,.93-1.82,3.52-1.09,3.94.78a5.3,5.3,0,0,1-.3,3.68C78.34,106,77.54,106.94,76.77,106.93Z"/><path class="cls-1" d="M79.16,142.89c-.1,1.95-1,3.77-2.83,3.08-1.62-.61-1.74-2.74-1.53-4.14s.62-2.57,2.15-2.79S79.25,140.92,79.16,142.89Z"/><path class="cls-1" d="M75.43,113.52a1.28,1.28,0,0,1,1.35-.84c1.3.13,2.36,2,2.43,3.18.08,1.38-.41,4.33-2.39,4-1.38-.26-1.75-2-1.79-3.16A7.56,7.56,0,0,1,75.43,113.52Z"/><circle class="cls-1" cx="125.12" cy="108.03" r="1.88"/></g></g></g></svg>